PathFileType	4	(X/Y/Z)	s01c0402.trc
DataRate	CameraRate	NumFrames	NumMarkers	Units	OrigDataRate	OrigDataStartFrame	OrigNumFrames
200	200	6	48	mm	200	1250	2000
Frame#	Time	racr			lacr			c7			jug			rlel			rdr			llel			ldr			s2			lic			ric			lasi			rasi			rpsi			lpsi			rgt			lgt			rth1			rth2			rth3			rth4			rlfc			rsh1			rsh2			rsh3			rsh4			rlmal			rmmal			rcal			rtoe			rmt5			lth1			lth2			lth4			lth3			llfc			lsh1			lsh2			lsh3			lsh4			llmal			lmmal			lcal			ltoe			lmt5			SBIKE			LBIKE			RBIKE			
		X1	Y1	Z1	X2	Y2	Z2	X3	Y3	Z3	X4	Y4	Z4	X5	Y5	Z5	X6	Y6	Z6	X7	Y7	Z7	X8	Y8	Z8	X9	Y9	Z9	X10	Y10	Z10	X11	Y11	Z11	X12	Y12	Z12	X13	Y13	Z13	X14	Y14	Z14	X15	Y15	Z15	X16	Y16	Z16	X17	Y17	Z17	X18	Y18	Z18	X19	Y19	Z19	X20	Y20	Z20	X21	Y21	Z21	X22	Y22	Z22	X23	Y23	Z23	X24	Y24	Z24	X25	Y25	Z25	X26	Y26	Z26	X27	Y27	Z27	X28	Y28	Z28	X29	Y29	Z29	X30	Y30	Z30	X31	Y31	Z31	X32	Y32	Z32	X33	Y33	Z33	X34	Y34	Z34	X35	Y35	Z35	X36	Y36	Z36	X37	Y37	Z37	X38	Y38	Z38	X39	Y39	Z39	X40	Y40	Z40	X41	Y41	Z41	X42	Y42	Z42	X43	Y43	Z43	X44	Y44	Z44	X45	Y45	Z45	X46	Y46	Z46	X47	Y47	Z47	X48	Y48	Z48	
1250	6.2500	704.540771	1282.584595	-30.123182	718.695068	1275.432617	-413.500732	708.500793	1398.910278	-215.813828	693.036987	1229.697021	-215.621704	537.223755	1044.121216	63.198112	691.377747	886.605713	-34.998623	547.751465	1060.025513	-537.016541	687.652405	887.366821	-444.216980	173.130508	1203.972412	-230.693680	339.417664	1208.416260	-404.355865	325.097290	1189.514771	-72.400795	337.629150	1155.076538	-381.000519	354.435730	1145.963745	-107.132225	203.912796	1238.590820	-177.752686	200.639114	1247.788452	-283.826416	275.935638	1074.160034	-54.155087	278.753357	1073.947510	-428.955780	351.695587	962.020569	-45.729877	403.512360	897.980835	-54.889015	454.960388	825.239746	-70.347931	447.716248	930.669128	-66.570152	495.065857	721.830444	-97.130280	438.110962	616.311218	-63.448807	406.269928	537.715942	-68.424934	364.776703	459.629303	-79.547951	447.379120	521.381348	-109.695107	294.821960	353.717377	-96.629791	339.575287	362.213409	-177.107666	242.530365	336.570679	-150.953308	499.028931	249.119293	-129.406769	389.020386	246.102783	-62.240379	337.142517	962.856506	-442.226532	401.637238	910.328796	-441.245300	438.307800	939.393860	-427.407745	455.674591	837.235962	-430.074036	487.483063	726.324585	-416.072540	379.165833	698.650024	-447.572968	305.812195	653.342163	-441.764038	230.466171	612.238525	-429.936157	336.117279	607.807312	-412.557892	123.427940	554.888489	-413.971039	144.804962	535.457947	-335.777771	74.449501	570.732483	-370.948059	195.441116	325.514069	-371.905701	124.004066	403.998505	-439.944031	-223.540878	893.431274	-250.356812	-12.490521	85.013100	-455.803650	-21.550791	80.815727	-55.661793	
1251	6.2550	705.209656	1283.938354	-31.705420	717.751953	1276.918091	-414.862915	707.152649	1400.525513	-217.229233	693.589478	1231.671509	-217.251358	538.534607	1045.156616	62.282978	691.738464	886.706055	-34.641045	548.094849	1059.385132	-537.090210	688.025391	887.273682	-444.073425	172.570709	1201.826782	-230.130356	339.816467	1207.460205	-403.519989	324.822266	1187.742432	-71.925171	337.598572	1154.009644	-379.812775	354.077484	1144.267822	-106.059486	203.541336	1236.304077	-177.230942	199.910492	1246.054443	-283.044769	274.437744	1071.288574	-54.156696	279.857788	1073.468994	-428.784698	348.592041	958.135986	-45.869572	398.931854	892.721008	-54.583454	448.669922	818.673950	-70.349800	444.360046	924.574463	-66.596085	487.653351	714.677795	-96.582787	431.958527	608.158936	-62.953995	401.086548	529.173889	-68.215332	360.376953	450.738770	-79.351868	441.663727	513.590332	-110.631737	290.477692	344.815399	-96.851219	336.535461	353.781128	-176.445389	238.670486	328.577148	-150.920990	494.255157	238.086533	-129.573044	384.175171	236.217392	-62.361305	341.407440	963.777771	-443.116028	405.493103	913.511902	-442.660675	442.246033	943.364014	-428.687836	463.498016	841.746155	-431.650970	494.895966	731.968933	-418.368378	386.016113	705.366577	-449.074341	312.177612	661.047607	-442.394745	236.607147	621.072998	-430.199249	342.182159	614.987183	-413.809113	128.994690	564.237549	-413.905914	150.412155	545.073730	-335.911591	79.815521	579.974792	-370.835480	200.736603	335.016174	-371.783691	129.349731	413.541107	-439.825958	-223.540970	893.396912	-250.388382	-12.488381	84.982285	-455.821259	-21.537596	80.804695	-55.675159	
1252	6.2600	705.836548	1285.283813	-33.421150	716.790894	1278.546631	-416.296173	705.760437	1402.156372	-218.711136	694.098328	1233.649414	-218.261002	539.796143	1046.356934	61.346069	692.093323	886.901855	-34.335129	548.318787	1058.936523	-537.406616	688.293274	887.258850	-444.034485	171.059280	1200.366943	-228.614182	340.030884	1206.951782	-402.724701	324.495026	1186.193481	-71.331398	337.503906	1153.099731	-378.733185	353.774170	1142.654053	-104.982697	203.233246	1234.143677	-176.621002	199.320282	1244.294556	-282.258972	272.913483	1068.626343	-54.304283	280.871704	1073.046509	-428.641815	345.414307	954.305725	-45.630688	394.260437	887.709717	-54.235462	442.295715	812.559082	-69.961403	440.431519	918.492615	-66.059235	479.933167	707.544556	-95.987190	425.666962	600.098877	-62.676975	395.401001	520.877136	-68.095695	355.501312	442.045288	-79.175377	435.869049	505.888031	-110.942909	285.807861	336.365479	-96.950096	332.065430	345.324951	-176.201996	234.508469	321.253418	-150.922485	488.838318	227.365250	-129.904984	378.942444	226.992462	-62.520958	343.777740	966.019714	-443.116211	409.267944	916.933105	-444.085419	445.694153	948.240234	-429.848907	470.516296	847.235229	-433.271057	502.161316	737.894653	-420.287323	393.128601	712.331665	-450.289185	319.063538	669.015442	-443.266876	243.177277	629.539734	-429.937286	348.911621	622.403442	-415.068604	135.161911	573.254333	-413.893677	156.917938	554.368225	-335.437744	85.679840	588.884155	-370.713684	206.598923	344.259735	-371.772156	135.370605	422.799286	-439.723938	-223.542191	893.362610	-250.441086	-12.483280	84.957649	-455.833221	-21.530285	80.784134	-55.696457	
1253	6.2650	706.408691	1286.720337	-35.360825	715.838013	1280.168457	-417.874146	704.420410	1403.766113	-220.472015	694.420715	1235.641602	-220.025223	541.017883	1047.755981	60.525623	692.488708	887.131348	-34.205364	548.392334	1058.643555	-537.983154	688.448181	887.320984	-444.094482	169.946182	1198.758667	-227.294556	339.929596	1206.765137	-401.981140	324.246155	1184.866943	-70.750244	337.269897	1152.412720	-377.753998	353.565857	1141.047852	-103.853127	202.947128	1232.120483	-175.900803	198.749054	1242.573486	-281.375763	271.549561	1066.260864	-54.316708	281.817688	1072.861694	-428.607605	342.210358	950.819763	-45.182392	389.509552	883.019409	-53.836544	435.673279	806.774292	-69.557640	436.390625	912.710754	-65.473877	471.918671	700.501282	-95.434372	418.721558	592.374268	-62.302864	389.139404	512.968933	-67.933922	349.969391	433.790375	-79.063690	429.479156	498.409302	-111.120972	280.743225	328.250580	-97.380638	327.227631	337.137299	-176.001724	229.829681	314.378510	-150.969116	482.964172	216.958405	-130.288406	372.850708	217.774200	-63.225906	346.733887	968.861450	-443.779480	412.942383	920.583191	-445.508667	450.221039	954.072266	-429.532806	476.735443	853.338806	-435.021881	509.678040	744.080444	-422.549042	400.269867	719.164734	-451.573914	326.029449	676.863892	-444.138062	249.996994	637.962585	-430.200195	355.824646	629.773132	-416.340271	141.899536	581.899353	-413.951355	164.244492	563.197632	-335.249969	92.008484	597.421692	-370.583130	213.047501	352.947601	-371.671417	141.960342	431.734009	-439.606689	-223.560089	893.336792	-250.517639	-12.495360	84.925735	-455.848145	-21.552023	80.788017	-55.702465	
1254	6.2700	706.924316	1288.140991	-37.296432	714.833191	1281.832886	-419.609711	703.051331	1405.390747	-222.311295	694.547119	1237.575439	-221.769775	542.263123	1049.252930	59.815903	692.887268	887.351746	-33.973282	548.287354	1058.512939	-538.749084	688.510254	887.472900	-444.227203	169.582520	1196.982910	-226.526779	339.549103	1206.900635	-401.361694	324.064941	1183.637329	-70.237160	336.959106	1151.870117	-376.762939	353.386444	1139.484497	-102.836624	202.713287	1230.264160	-175.090424	198.026825	1241.088379	-280.362732	270.414154	1063.986084	-54.297062	282.516815	1073.131714	-428.600830	339.009979	947.568665	-44.742611	384.671936	878.695190	-53.416786	429.057861	801.385376	-68.989281	432.223297	907.377197	-65.063095	463.610046	693.690552	-94.914215	411.368286	585.041260	-61.866497	382.422302	505.391602	-67.721321	343.922150	425.979523	-78.875771	422.628174	491.396210	-110.939484	275.356842	320.923584	-97.594368	322.145996	329.393555	-175.737778	224.844208	307.892761	-150.967789	476.415070	207.186752	-129.772293	366.543488	209.384964	-63.055809	349.304932	971.942627	-444.325256	416.496094	924.446899	-446.919830	453.225189	959.722717	-430.662445	482.226990	859.780945	-436.861267	517.169189	750.775391	-424.832001	408.190979	726.779724	-453.183105	333.403137	684.744263	-445.052368	256.843811	646.572632	-431.246674	363.123077	637.259460	-417.454285	149.186920	590.147827	-414.072876	171.446991	571.457031	-335.667511	98.755630	605.548401	-370.442902	220.084946	361.178741	-371.573578	149.114426	440.157654	-439.460815	-223.573288	893.316162	-250.585754	-12.479530	84.905846	-455.877106	-21.533878	80.770462	-55.739037	
1255	6.2750	707.362183	1289.701782	-39.363335	713.776062	1283.409180	-421.471344	701.795410	1407.000122	-224.194733	694.555237	1239.408081	-223.667816	543.491394	1050.845703	59.295261	693.173279	887.715027	-33.751431	548.000671	1058.537354	-539.737854	688.485535	887.711304	-444.400574	169.256363	1195.481201	-225.599045	338.900055	1207.189453	-400.887299	324.045959	1182.478516	-69.735771	336.647247	1151.626465	-376.081451	353.268036	1137.923706	-101.966400	202.561249	1228.553955	-174.190018	197.329498	1239.601929	-279.517395	269.472015	1062.017090	-54.340183	283.117065	1073.714111	-428.595734	335.794678	944.735291	-44.334095	379.831085	874.791138	-53.008041	422.389893	796.515625	-68.376518	428.020050	902.300232	-64.634712	454.975586	687.093811	-93.886993	403.473389	578.263184	-61.270226	375.262268	498.318909	-67.417450	337.432434	418.691284	-78.619873	415.508331	484.803345	-110.508591	269.507629	313.971680	-98.017494	316.780029	322.241730	-175.354904	219.494736	302.111969	-150.967850	469.493713	197.467957	-129.987595	359.650818	201.227798	-63.700737	351.604065	975.348572	-444.711426	419.908661	928.503601	-448.308472	455.975464	965.537292	-431.970642	487.442139	866.293701	-438.619324	525.485962	757.617920	-425.968140	415.927612	734.128357	-454.585999	341.058350	692.452087	-445.971954	263.691803	654.969238	-431.587708	370.569427	644.697998	-418.419495	156.919098	597.990295	-414.260834	179.675934	579.222534	-336.009827	105.864578	613.225403	-370.291199	227.604736	368.920715	-371.378662	156.762741	448.106171	-439.317291	-223.585510	893.299988	-250.621017	-12.465867	84.950249	-455.822266	-21.530794	80.757721	-55.740414	
